<svg width="12" height="12" viewBox="0 0 12 12" fill="none" xmlns="http://www.w3.org/2000/svg">
<path d="M8.375 1.78V1C8.375 0.795 8.205 0.625 8 0.625C7.795 0.625 7.625 0.795 7.625 1V1.75H4.375V1C4.375 0.795 4.205 0.625 4 0.625C3.795 0.625 3.625 0.795 3.625 1V1.78C2.275 1.905 1.62 2.71 1.52 3.905C1.51 4.05 1.63 4.17 1.77 4.17H10.23C10.375 4.17 10.495 4.045 10.48 3.905C10.38 2.71 9.725 1.905 8.375 1.78ZM10 4.92H2C1.725 4.92 1.5 5.145 1.5 5.42V8.5C1.5 10 2.25 11 4 11H8C9.75 11 10.5 10 10.5 8.5V5.42C10.5 5.145 10.275 4.92 10 4.92ZM4.605 9.105C4.555 9.15 4.5 9.185 4.44 9.21C4.38 9.235 4.315 9.25 4.25 9.25C4.185 9.25 4.12 9.235 4.06 9.21C4 9.185 3.945 9.15 3.895 9.105C3.805 9.01 3.75 8.88 3.75 8.75C3.75 8.62 3.805 8.49 3.895 8.395C3.945 8.35 4 8.315 4.06 8.29C4.18173 8.23999 4.31827 8.23999 4.44 8.29C4.5 8.315 4.555 8.35 4.605 8.395C4.695 8.49 4.75 8.62 4.75 8.75C4.75 8.88 4.695 9.01 4.605 9.105ZM4.71 7.19C4.685 7.25 4.65 7.305 4.605 7.355C4.555 7.4 4.5 7.435 4.44 7.46C4.38 7.485 4.315 7.5 4.25 7.5C4.185 7.5 4.12 7.485 4.06 7.46C4 7.435 3.945 7.4 3.895 7.355C3.85 7.305 3.815 7.25 3.79 7.19C3.76432 7.12991 3.75073 7.06535 3.75 7C3.75 6.935 3.765 6.87 3.79 6.81C3.815 6.75 3.85 6.695 3.895 6.645C3.945 6.6 4 6.565 4.06 6.54C4.18173 6.48999 4.31827 6.48999 4.44 6.54C4.5 6.565 4.555 6.6 4.605 6.645C4.65 6.695 4.685 6.75 4.71 6.81C4.735 6.87 4.75 6.935 4.75 7C4.75 7.065 4.735 7.13 4.71 7.19ZM6.355 7.355C6.305 7.4 6.25 7.435 6.19 7.46C6.13 7.485 6.065 7.5 6 7.5C5.935 7.5 5.87 7.485 5.81 7.46C5.75 7.435 5.695 7.4 5.645 7.355C5.555 7.26 5.5 7.13 5.5 7C5.5 6.87 5.555 6.74 5.645 6.645C5.695 6.6 5.75 6.565 5.81 6.54C5.93 6.485 6.07 6.485 6.19 6.54C6.25 6.565 6.305 6.6 6.355 6.645C6.445 6.74 6.5 6.87 6.5 7C6.5 7.13 6.445 7.26 6.355 7.355Z" fill="#A6A3A0"/>
</svg>
