<svg width="24" height="24" viewBox="0 0 24 24" fill="none" xmlns="http://www.w3.org/2000/svg">
<path d="M16.19 2H7.81C4.17 2 2 4.17 2 7.81V16.18C2 19.83 4.17 22 7.81 22H16.18C19.82 22 21.99 19.83 21.99 16.19V7.81C22 4.17 19.83 2 16.19 2ZM10.93 17.15C10.93 17.25 10.91 17.34 10.87 17.44C10.79 17.62 10.65 17.77 10.46 17.85C10.3687 17.8904 10.2699 17.9113 10.17 17.9113C10.0701 17.9113 9.97134 17.8904 9.88 17.85C9.7907 17.8121 9.7093 17.7579 9.64 17.69L6.6 14.65C6.46052 14.5089 6.3823 14.3184 6.3823 14.12C6.3823 13.9216 6.46052 13.7311 6.6 13.59C6.89 13.3 7.37 13.3 7.66 13.59L9.42 15.35V6.85C9.42 6.44 9.76 6.1 10.17 6.1C10.58 6.1 10.92 6.44 10.92 6.85V17.15H10.93ZM17.39 10.42C17.24 10.57 17.05 10.64 16.86 10.64C16.67 10.64 16.48 10.57 16.33 10.42L14.57 8.66V17.16C14.57 17.57 14.23 17.91 13.82 17.91C13.41 17.91 13.07 17.57 13.07 17.16V6.85C13.07 6.75 13.09 6.66 13.13 6.56C13.21 6.38 13.35 6.23 13.54 6.15C13.72 6.07 13.93 6.07 14.11 6.15C14.2 6.19 14.28 6.24 14.35 6.31L17.39 9.35C17.68 9.65 17.68 10.12 17.39 10.42Z" fill="black"/>
</svg>
