<svg width="16" height="17" viewBox="0 0 16 17" fill="none" xmlns="http://www.w3.org/2000/svg">
<path d="M11.6867 5.68C11.6403 5.67334 11.5931 5.67334 11.5467 5.68C11.0488 5.66371 10.5768 5.45413 10.2308 5.0957C9.88483 4.73727 9.69205 4.25818 9.69336 3.76C9.69336 2.7 10.5534 1.83334 11.62 1.83334C12.68 1.83334 13.5467 2.69334 13.5467 3.76C13.5453 4.25849 13.3507 4.73702 13.0038 5.09506C12.657 5.45309 12.1849 5.66276 11.6867 5.68ZM13.8614 10.3C13.1147 10.8 12.068 10.9867 11.1014 10.86C11.3547 10.3133 11.488 9.70667 11.4947 9.06667C11.4947 8.4 11.348 7.76667 11.068 7.21334C12.0547 7.08 13.1014 7.26667 13.8547 7.76667C14.908 8.46 14.908 9.6 13.8614 10.3ZM4.29336 5.68C4.34002 5.67334 4.38669 5.67334 4.43336 5.68C4.93126 5.66371 5.40325 5.45413 5.74923 5.0957C6.09522 4.73727 6.288 4.25818 6.28669 3.76C6.28669 3.50743 6.23694 3.25732 6.14028 3.02397C6.04363 2.79063 5.90196 2.5786 5.72336 2.4C5.54476 2.2214 5.33273 2.07973 5.09938 1.98307C4.86603 1.88642 4.61593 1.83667 4.36336 1.83667C4.11078 1.83667 3.86068 1.88642 3.62733 1.98307C3.39398 2.07973 3.18195 2.2214 3.00335 2.4C2.82475 2.5786 2.68308 2.79063 2.58643 3.02397C2.48977 3.25732 2.44002 3.50743 2.44002 3.76C2.44002 4.8 3.26002 5.64667 4.29336 5.68ZM4.36736 9.06667C4.36736 9.71334 4.50736 10.3267 4.76069 10.88C3.82069 10.98 2.84069 10.78 2.12069 10.3067C1.06736 9.60667 1.06736 8.46667 2.12069 7.76667C2.83402 7.28667 3.84069 7.09334 4.78736 7.2C4.51402 7.76 4.36736 8.39334 4.36736 9.06667ZM8.08002 11.08C8.02244 11.0733 7.96427 11.0733 7.90669 11.08C7.31392 11.0601 6.75216 10.8103 6.3403 10.3835C5.92845 9.95673 5.69882 9.38644 5.70002 8.79334C5.70669 7.52667 6.72669 6.5 8.00002 6.5C9.26669 6.5 10.2934 7.52667 10.2934 8.79334C10.293 9.3871 10.0619 9.9575 9.64899 10.3841C9.23603 10.8108 8.67346 11.0603 8.08002 11.08ZM5.91336 12.46C4.90669 13.1333 4.90669 14.24 5.91336 14.9067C7.06002 15.6733 8.94002 15.6733 10.0867 14.9067C11.0934 14.2333 11.0934 13.1267 10.0867 12.46C8.94669 11.6933 7.06669 11.6933 5.91336 12.46Z" fill="#A6A3A0"/>
</svg>
