<svg width="12" height="12" viewBox="0 0 12 12" fill="none" xmlns="http://www.w3.org/2000/svg">
<path d="M6 1C3.24 1 1 3.24 1 6C1 8.76 3.24 11 6 11C8.76 11 11 8.76 11 6C11 3.24 8.76 1 6 1ZM5.465 8.575C5.465 8.625 5.455 8.67 5.435 8.72C5.395 8.81 5.325 8.885 5.23 8.925C5.18433 8.9452 5.13494 8.95563 5.085 8.95563C5.03506 8.95563 4.98567 8.9452 4.94 8.925C4.89535 8.90607 4.85465 8.87893 4.82 8.845L3.3 7.325C3.23026 7.25443 3.19115 7.15921 3.19115 7.06C3.19115 6.96078 3.23026 6.86557 3.3 6.795C3.445 6.65 3.685 6.65 3.83 6.795L4.71 7.675V3.425C4.71 3.22 4.88 3.05 5.085 3.05C5.29 3.05 5.46 3.22 5.46 3.425V8.575H5.465ZM8.695 5.21C8.62 5.285 8.525 5.32 8.43 5.32C8.335 5.32 8.24 5.285 8.165 5.21L7.285 4.33V8.58C7.285 8.785 7.115 8.955 6.91 8.955C6.705 8.955 6.535 8.785 6.535 8.58V3.425C6.535 3.375 6.545 3.33 6.565 3.28C6.605 3.19 6.675 3.115 6.77 3.075C6.86 3.035 6.965 3.035 7.055 3.075C7.1 3.095 7.14 3.12 7.175 3.155L8.695 4.675C8.84 4.825 8.84 5.06 8.695 5.21Z" fill="#A6A3A0"/>
</svg>
