<svg width="24" height="24" viewBox="0 0 24 24" fill="none" xmlns="http://www.w3.org/2000/svg">
<path d="M12.6759 19.959C12.9509 20.023 12.9759 20.383 12.7079 20.472L11.1279 20.992C7.1579 22.272 5.0679 21.202 3.7779 17.232L2.4979 13.282C1.2179 9.312 2.2779 7.212 6.2479 5.932L6.7719 5.758C7.1749 5.625 7.5669 6.029 7.4519 6.438C7.3959 6.64 7.3419 6.852 7.2879 7.072L6.3079 11.262C5.2079 15.972 6.8179 18.572 11.5279 19.692L12.6759 19.959Z" fill="black"/>
<path d="M17.1699 3.209L15.4999 2.819C12.1599 2.029 10.1699 2.679 8.99994 5.099C8.69994 5.709 8.45994 6.449 8.25994 7.299L7.27994 11.489C6.29994 15.669 7.58994 17.729 11.7599 18.719L13.4399 19.119C14.0199 19.259 14.5599 19.349 15.0599 19.389C18.1799 19.689 19.8399 18.229 20.6799 14.619L21.6599 10.439C22.6399 6.259 21.3599 4.189 17.1699 3.209ZM15.2899 13.329C15.1999 13.669 14.8999 13.889 14.5599 13.889C14.4999 13.889 14.4399 13.879 14.3699 13.869L11.4599 13.129C11.2795 13.0695 11.1284 12.9437 11.0371 12.7771C10.9458 12.6105 10.9211 12.4154 10.9681 12.2313C11.0151 12.0472 11.1302 11.8878 11.2902 11.7853C11.4501 11.6827 11.643 11.6448 11.8299 11.679L14.7399 12.419C15.1499 12.519 15.3899 12.929 15.2899 13.329ZM18.2199 9.949C18.1299 10.289 17.8299 10.509 17.4899 10.509C17.4299 10.509 17.3699 10.499 17.2999 10.489L12.4499 9.259C12.2695 9.1995 12.1184 9.07373 12.0271 8.90709C11.9358 8.74046 11.9111 8.54539 11.9581 8.36129C12.0051 8.17719 12.1202 8.01778 12.2802 7.91526C12.4401 7.81275 12.633 7.77477 12.8199 7.809L17.6699 9.039C18.0799 9.129 18.3199 9.539 18.2199 9.949Z" fill="black"/>
</svg>
