<svg width="24" height="24" viewBox="0 0 24 24" fill="none" xmlns="http://www.w3.org/2000/svg">
<path d="M14.35 2H9.65001C8.61001 2 7.76001 2.84 7.76001 3.88V4.82C7.76001 5.86 8.60001 6.7 9.64001 6.7H14.35C15.39 6.7 16.23 5.86 16.23 4.82V3.88C16.24 2.84 15.39 2 14.35 2Z" fill="black"/>
<path d="M17.24 4.82C17.24 6.41 15.94 7.71 14.35 7.71H9.65004C8.06004 7.71 6.76004 6.41 6.76004 4.82C6.76004 4.26 6.16004 3.91 5.66004 4.17C4.94379 4.55142 4.34483 5.12054 3.92733 5.81637C3.50983 6.5122 3.28953 7.30852 3.29004 8.11999V17.53C3.29004 19.99 5.30004 22 7.76004 22H16.24C18.7 22 20.71 19.99 20.71 17.53V8.11999C20.71 6.40999 19.75 4.92 18.34 4.17C17.84 3.91 17.24 4.26 17.24 4.82ZM14.53 16.69C14.38 16.84 14.19 16.91 14 16.91C13.81 16.91 13.62 16.84 13.47 16.69L12.02 15.24L10.53 16.73C10.38 16.88 10.19 16.95 10 16.95C9.81004 16.95 9.62004 16.88 9.47004 16.73C9.33056 16.5889 9.25234 16.3984 9.25234 16.2C9.25234 16.0016 9.33056 15.8111 9.47004 15.67L10.96 14.18L9.51004 12.73C9.37056 12.5889 9.29234 12.3984 9.29234 12.2C9.29234 12.0016 9.37056 11.8111 9.51004 11.67C9.80004 11.38 10.28 11.38 10.57 11.67L12.02 13.12L13.42 11.72C13.71 11.43 14.19 11.43 14.48 11.72C14.77 12.01 14.77 12.49 14.48 12.78L13.08 14.18L14.53 15.63C14.82 15.92 14.82 16.39 14.53 16.69Z" fill="black"/>
</svg>
