<svg width="12" height="12" viewBox="0 0 12 12" fill="none" xmlns="http://www.w3.org/2000/svg">
<path d="M6.00002 6C6.66306 6 7.29894 5.73661 7.76778 5.26777C8.23663 4.79893 8.50002 4.16304 8.50002 3.5C8.50002 2.83696 8.23663 2.20107 7.76778 1.73223C7.29894 1.26339 6.66306 1 6.00002 1C5.33698 1 4.70109 1.26339 4.23225 1.73223C3.76341 2.20107 3.50002 2.83696 3.50002 3.5C3.50002 4.16304 3.76341 4.79893 4.23225 5.26777C4.70109 5.73661 5.33698 6 6.00002 6ZM6.00002 7.25C3.49502 7.25 1.45502 8.93 1.45502 11C1.45502 11.14 1.56502 11.25 1.70502 11.25H10.295C10.435 11.25 10.545 11.14 10.545 11C10.545 8.93 8.50502 7.25 6.00002 7.25Z" fill="#A6A3A0"/>
</svg>
